<?xml version="1.0" standalone="no"?>
<!DOCTYPE svg PUBLIC "-//W3C//DTD SVG 20010904//EN"
 "http://www.w3.org/TR/2001/REC-SVG-20010904/DTD/svg10.dtd">
<svg version="1.0" xmlns="http://www.w3.org/2000/svg"
 width="512.000000pt" height="512.000000pt" viewBox="0 0 512.000000 512.000000"
 preserveAspectRatio="xMidYMid meet">

<g transform="translate(0.000000,512.000000) scale(0.100000,-0.100000)"
fill="#000000" stroke="none">
<path d="M341 4643 c-25 -21 -20 -3 -206 -814 l-137 -597 155 -672 154 -673
-154 -670 c-91 -394 -152 -679 -149 -693 4 -13 16 -33 28 -44 22 -20 29 -20
1571 -20 1072 0 1554 3 1568 11 11 5 24 22 30 36 24 64 129 546 123 569 -8 32
-50 64 -85 64 -15 0 -39 -10 -54 -22 -22 -20 -32 -54 -78 -253 l-53 -230
-1427 -3 c-785 -1 -1427 1 -1427 5 1 5 60 267 133 583 l133 575 1108 5 1108 5
24 28 c13 15 24 37 24 48 0 36 -28 77 -61 88 -23 8 -350 11 -1120 11 -946 0
-1089 2 -1089 15 0 10 -205 912 -255 1123 l-5 22 1427 0 1428 0 59 -263 c33
-144 65 -277 70 -296 29 -98 167 -79 166 23 -1 23 -31 173 -69 334 l-68 293
154 671 c93 401 152 680 149 694 -4 13 -16 33 -28 44 -22 20 -29 20 -1574 20
-1463 0 -1553 -1 -1573 -17z m2979 -160 c-1 -5 -60 -267 -133 -583 l-133 -575
-1428 -3 -1428 -2 5 22 c3 13 63 271 132 573 69 303 128 556 130 563 4 9 298
12 1430 12 784 0 1425 -3 1425 -7z"/>
<path d="M2875 4298 c-11 -6 -57 -44 -101 -85 -83 -74 -104 -86 -104 -58 0 9
-11 27 -25 40 -51 52 -145 17 -145 -53 0 -38 28 -178 42 -216 15 -37 66 -60
104 -46 24 10 310 254 343 294 7 8 13 32 13 53 0 64 -70 103 -127 71z"/>
<path d="M689 4187 c-46 -35 -47 -101 -2 -137 25 -20 39 -20 813 -20 l787 0
21 23 c36 38 38 78 7 115 l-27 32 -791 0 c-607 -1 -796 -3 -808 -13z"/>
<path d="M524 3756 c-37 -31 -38 -84 -4 -121 l23 -25 788 0 c433 0 795 3 804
6 19 8 45 55 45 84 0 12 -13 35 -29 51 l-29 29 -786 0 -785 0 -27 -24z"/>
<path d="M4483 3467 c-142 -131 -561 -524 -883 -827 -184 -173 -433 -406 -552
-518 -173 -162 -220 -211 -232 -245 -9 -23 -61 -180 -116 -349 -96 -296 -100
-309 -86 -341 8 -21 25 -38 45 -47 29 -12 59 -5 383 78 307 80 355 95 382 120
225 209 1180 1104 1236 1157 41 40 156 148 255 240 184 172 204 195 204 230 0
11 -5 30 -12 41 -17 30 -456 497 -481 511 -44 26 -73 16 -143 -50z m261 -323
c86 -92 156 -170 156 -175 0 -11 -1529 -1444 -1543 -1446 -7 -1 -83 75 -171
169 l-159 170 29 28 c27 25 663 621 1029 964 88 82 194 181 235 220 186 177
252 236 260 236 4 0 78 -75 164 -166z m-1564 -1704 c0 -7 -340 -93 -345 -88
-4 4 92 315 103 333 5 8 242 -231 242 -245z"/>
<path d="M2734 3044 c-36 -19 -35 -18 -89 -156 l-46 -116 -24 24 c-30 30 -82
32 -119 3 -20 -16 -26 -29 -26 -59 0 -32 11 -52 66 -122 69 -88 93 -107 134
-107 49 -1 67 28 150 242 74 190 80 211 70 241 -16 49 -72 73 -116 50z"/>
<path d="M539 2845 c-62 -33 -54 -131 11 -154 24 -8 251 -11 789 -11 700 0
759 1 791 18 66 33 63 126 -6 152 -15 6 -328 10 -792 10 -647 -1 -771 -3 -793
-15z"/>
<path d="M2798 2580 c-17 -13 -42 -61 -73 -140 l-47 -120 -30 25 c-59 50 -140
16 -140 -58 0 -31 11 -52 57 -113 32 -41 69 -83 83 -94 31 -25 83 -26 111 -2
26 22 173 395 173 442 0 67 -80 103 -134 60z"/>
<path d="M700 2422 c-62 -31 -62 -117 0 -149 20 -10 189 -12 806 -10 745 2
783 3 802 21 48 42 31 124 -29 145 -22 8 -260 11 -788 11 -700 0 -759 -1 -791
-18z"/>
<path d="M689 1497 c-46 -35 -50 -88 -10 -128 l29 -29 785 0 c771 0 785 0 810
20 45 36 44 102 -2 137 -23 18 -1589 18 -1612 0z"/>
<path d="M524 1066 c-21 -18 -28 -32 -28 -61 0 -29 7 -43 28 -61 l27 -24 788
0 c777 0 788 0 809 20 41 38 40 92 -1 130 -20 20 -39 20 -808 20 l-788 0 -27
-24z"/>
</g>
</svg>
